<mxfile host="app.diagrams.net" modified="2024-05-01T22:00:13.224Z" agent="Mozilla/5.0 (Windows NT 10.0; Win64; x64) AppleWebKit/537.36 (KHTML, like Gecko) Chrome/124.0.0.0 Safari/537.36" etag="5qvI6WbmgVDOFxsZVst8" version="24.3.1" type="device">
  <diagram id="bc47vRQSer-DN1HRI0ml" name="Page-1">
    <mxGraphModel dx="882" dy="578" grid="1" gridSize="10" guides="1" tooltips="1" connect="1" arrows="1" fold="1" page="1" pageScale="1" pageWidth="850" pageHeight="1100" math="0" shadow="0">
      <root>
        <mxCell id="0" />
        <mxCell id="1" parent="0" />
        <mxCell id="x_10vAEVL0Qu5a1ShaMM-4" style="edgeStyle=orthogonalEdgeStyle;rounded=0;orthogonalLoop=1;jettySize=auto;html=1;exitX=0.5;exitY=1;exitDx=0;exitDy=0;entryX=0.5;entryY=0;entryDx=0;entryDy=0;" edge="1" parent="1" source="x_10vAEVL0Qu5a1ShaMM-1" target="x_10vAEVL0Qu5a1ShaMM-2">
          <mxGeometry relative="1" as="geometry" />
        </mxCell>
        <mxCell id="x_10vAEVL0Qu5a1ShaMM-1" value="Metrics source" style="rounded=1;whiteSpace=wrap;html=1;" vertex="1" parent="1">
          <mxGeometry x="80" y="40" width="120" height="60" as="geometry" />
        </mxCell>
        <mxCell id="x_10vAEVL0Qu5a1ShaMM-5" style="edgeStyle=orthogonalEdgeStyle;rounded=0;orthogonalLoop=1;jettySize=auto;html=1;exitX=0.5;exitY=1;exitDx=0;exitDy=0;entryX=0.5;entryY=0;entryDx=0;entryDy=0;" edge="1" parent="1" source="x_10vAEVL0Qu5a1ShaMM-2" target="x_10vAEVL0Qu5a1ShaMM-3">
          <mxGeometry relative="1" as="geometry" />
        </mxCell>
        <mxCell id="x_10vAEVL0Qu5a1ShaMM-2" value="Metrics collector" style="rounded=1;whiteSpace=wrap;html=1;" vertex="1" parent="1">
          <mxGeometry x="80" y="160" width="120" height="60" as="geometry" />
        </mxCell>
        <mxCell id="x_10vAEVL0Qu5a1ShaMM-12" style="edgeStyle=orthogonalEdgeStyle;rounded=0;orthogonalLoop=1;jettySize=auto;html=1;exitX=1;exitY=0.5;exitDx=0;exitDy=0;" edge="1" parent="1" source="x_10vAEVL0Qu5a1ShaMM-3" target="x_10vAEVL0Qu5a1ShaMM-6">
          <mxGeometry relative="1" as="geometry" />
        </mxCell>
        <mxCell id="x_10vAEVL0Qu5a1ShaMM-3" value="Time series DB" style="rounded=1;whiteSpace=wrap;html=1;" vertex="1" parent="1">
          <mxGeometry x="80" y="280" width="120" height="60" as="geometry" />
        </mxCell>
        <mxCell id="x_10vAEVL0Qu5a1ShaMM-6" value="Query service" style="rounded=1;whiteSpace=wrap;html=1;" vertex="1" parent="1">
          <mxGeometry x="280" y="280" width="120" height="60" as="geometry" />
        </mxCell>
        <mxCell id="x_10vAEVL0Qu5a1ShaMM-13" style="edgeStyle=orthogonalEdgeStyle;rounded=0;orthogonalLoop=1;jettySize=auto;html=1;exitX=0.5;exitY=1;exitDx=0;exitDy=0;entryX=0.5;entryY=0;entryDx=0;entryDy=0;" edge="1" parent="1" source="x_10vAEVL0Qu5a1ShaMM-7" target="x_10vAEVL0Qu5a1ShaMM-6">
          <mxGeometry relative="1" as="geometry" />
        </mxCell>
        <mxCell id="x_10vAEVL0Qu5a1ShaMM-17" style="edgeStyle=orthogonalEdgeStyle;rounded=0;orthogonalLoop=1;jettySize=auto;html=1;exitX=0.75;exitY=0;exitDx=0;exitDy=0;entryX=0;entryY=0.5;entryDx=0;entryDy=0;" edge="1" parent="1" source="x_10vAEVL0Qu5a1ShaMM-7" target="x_10vAEVL0Qu5a1ShaMM-9">
          <mxGeometry relative="1" as="geometry" />
        </mxCell>
        <mxCell id="x_10vAEVL0Qu5a1ShaMM-18" style="edgeStyle=orthogonalEdgeStyle;rounded=0;orthogonalLoop=1;jettySize=auto;html=1;exitX=0.75;exitY=1;exitDx=0;exitDy=0;entryX=0;entryY=0.5;entryDx=0;entryDy=0;" edge="1" parent="1" source="x_10vAEVL0Qu5a1ShaMM-7" target="x_10vAEVL0Qu5a1ShaMM-11">
          <mxGeometry relative="1" as="geometry">
            <Array as="points">
              <mxPoint x="370" y="260" />
              <mxPoint x="440" y="260" />
              <mxPoint x="440" y="310" />
            </Array>
          </mxGeometry>
        </mxCell>
        <mxCell id="x_10vAEVL0Qu5a1ShaMM-19" style="edgeStyle=orthogonalEdgeStyle;rounded=0;orthogonalLoop=1;jettySize=auto;html=1;exitX=1;exitY=0.5;exitDx=0;exitDy=0;entryX=0;entryY=0.5;entryDx=0;entryDy=0;" edge="1" parent="1" source="x_10vAEVL0Qu5a1ShaMM-7" target="x_10vAEVL0Qu5a1ShaMM-10">
          <mxGeometry relative="1" as="geometry" />
        </mxCell>
        <mxCell id="x_10vAEVL0Qu5a1ShaMM-7" value="Alerting system" style="rounded=1;whiteSpace=wrap;html=1;" vertex="1" parent="1">
          <mxGeometry x="280" y="160" width="120" height="60" as="geometry" />
        </mxCell>
        <mxCell id="x_10vAEVL0Qu5a1ShaMM-16" style="edgeStyle=orthogonalEdgeStyle;rounded=0;orthogonalLoop=1;jettySize=auto;html=1;exitX=0.5;exitY=0;exitDx=0;exitDy=0;entryX=0.5;entryY=1;entryDx=0;entryDy=0;" edge="1" parent="1" source="x_10vAEVL0Qu5a1ShaMM-8" target="x_10vAEVL0Qu5a1ShaMM-6">
          <mxGeometry relative="1" as="geometry" />
        </mxCell>
        <mxCell id="x_10vAEVL0Qu5a1ShaMM-8" value="Visualization system" style="rounded=1;whiteSpace=wrap;html=1;" vertex="1" parent="1">
          <mxGeometry x="280" y="400" width="120" height="60" as="geometry" />
        </mxCell>
        <mxCell id="x_10vAEVL0Qu5a1ShaMM-9" value="Email" style="rounded=1;whiteSpace=wrap;html=1;" vertex="1" parent="1">
          <mxGeometry x="480" y="40" width="120" height="60" as="geometry" />
        </mxCell>
        <mxCell id="x_10vAEVL0Qu5a1ShaMM-10" value="Text" style="rounded=1;whiteSpace=wrap;html=1;" vertex="1" parent="1">
          <mxGeometry x="480" y="160" width="120" height="60" as="geometry" />
        </mxCell>
        <mxCell id="x_10vAEVL0Qu5a1ShaMM-11" value="HTTPS endpoints" style="rounded=1;whiteSpace=wrap;html=1;" vertex="1" parent="1">
          <mxGeometry x="480" y="280" width="120" height="60" as="geometry" />
        </mxCell>
        <mxCell id="x_10vAEVL0Qu5a1ShaMM-14" value="Send queries" style="text;html=1;align=center;verticalAlign=middle;whiteSpace=wrap;rounded=0;" vertex="1" parent="1">
          <mxGeometry x="240" y="240" width="80" height="30" as="geometry" />
        </mxCell>
        <mxCell id="x_10vAEVL0Qu5a1ShaMM-15" value="Send queries" style="text;html=1;align=center;verticalAlign=middle;whiteSpace=wrap;rounded=0;" vertex="1" parent="1">
          <mxGeometry x="240" y="360" width="80" height="30" as="geometry" />
        </mxCell>
      </root>
    </mxGraphModel>
  </diagram>
</mxfile>
